REM DIRINDEX 1\2,1\3,1\4,1\5
REM DIRNAME "folder01","folder02","folder03","folder04","folder05"
TITLE ""
FILE "P1Q_t_1510-1519.mp3" MP3
  TRACK 01 AUDIO
    TITLE "3:cjc173_5508"
    INDEX 01 00:00:00
  TRACK 02 AUDIO
    TITLE "0:"
    INDEX 01 00:01:23
  TRACK 03 AUDIO
    TITLE "4:cjc173_5509"
    INDEX 01 00:01:47
  TRACK 04 AUDIO
    TITLE "0:"
    INDEX 01 00:04:06
  TRACK 05 AUDIO
    TITLE "5:cjc173_5510"
    INDEX 01 00:04:26
  TRACK 06 AUDIO
    TITLE "0:"
    INDEX 01 00:07:48
  TRACK 07 AUDIO
    TITLE "3:cjc173_5511"
    INDEX 01 00:08:18
  TRACK 08 AUDIO
    TITLE "0:"
    INDEX 01 00:09:21
  TRACK 09 AUDIO
    TITLE "4:cjc173_5512"
    INDEX 01 00:09:41
  TRACK 10 AUDIO
    TITLE "0:"
    INDEX 01 00:12:31
  TRACK 11 AUDIO
    TITLE "5:cjc173_5513"
    INDEX 01 00:12:51
  TRACK 12 AUDIO
    TITLE "0:"
    INDEX 01 00:17:26
  TRACK 13 AUDIO
    TITLE "3:cjc173_5514"
    INDEX 01 00:17:71
  TRACK 14 AUDIO
    TITLE "0:"
    INDEX 01 00:19:02
  TRACK 15 AUDIO
    TITLE "4:cjc173_5515"
    INDEX 01 00:19:23
  TRACK 16 AUDIO
    TITLE "0:"
    INDEX 01 00:22:04
  TRACK 17 AUDIO
    TITLE "5:cjc173_5516"
    INDEX 01 00:22:24
  TRACK 18 AUDIO
    TITLE "0:"
    INDEX 01 00:26:53
  TRACK 19 AUDIO
    TITLE "3:cjc173_5517"
    INDEX 01 00:27:31
  TRACK 20 AUDIO
    TITLE "0:"
    INDEX 01 00:28:46
  TRACK 21 AUDIO
    TITLE "4:cjc173_5518"
    INDEX 01 00:28:67
  TRACK 22 AUDIO
    TITLE "0:"
    INDEX 01 00:33:35
  TRACK 23 AUDIO
    TITLE "5:cjc173_5519"
    INDEX 01 00:33:55
  TRACK 24 AUDIO
    TITLE "0:"
    INDEX 01 00:36:67
  TRACK 25 AUDIO
    TITLE "3:cjc173_5520"
    INDEX 01 00:37:41
  TRACK 26 AUDIO
    TITLE "0:"
    INDEX 01 00:38:60
  TRACK 27 AUDIO
    TITLE "4:cjc173_5521"
    INDEX 01 00:39:08
  TRACK 28 AUDIO
    TITLE "0:"
    INDEX 01 00:42:44
  TRACK 29 AUDIO
    TITLE "5:cjc173_5522"
    INDEX 01 00:42:64
  TRACK 30 AUDIO
    TITLE "0:"
    INDEX 01 00:46:67
  TRACK 31 AUDIO
    TITLE "3:cjc173_5523"
    INDEX 01 00:47:37
  TRACK 32 AUDIO
    TITLE "0:"
    INDEX 01 00:48:62
  TRACK 33 AUDIO
    TITLE "4:cjc173_5524"
    INDEX 01 00:49:09
  TRACK 34 AUDIO
    TITLE "0:"
    INDEX 01 00:51:08
  TRACK 35 AUDIO
    TITLE "5:cjc173_5525"
    INDEX 01 00:51:27
  TRACK 36 AUDIO
    TITLE "0:"
    INDEX 01 00:55:49
  TRACK 37 AUDIO
    TITLE "3:cjc173_5526"
    INDEX 01 00:56:21
  TRACK 38 AUDIO
    TITLE "0:"
    INDEX 01 00:57:49
  TRACK 39 AUDIO
    TITLE "4:cjc173_5527"
    INDEX 01 00:57:71
  TRACK 40 AUDIO
    TITLE "0:"
    INDEX 01 01:01:12
  TRACK 41 AUDIO
    TITLE "5:cjc173_5528"
    INDEX 01 01:01:30
  TRACK 42 AUDIO
    TITLE "0:"
    INDEX 01 01:06:13
  TRACK 43 AUDIO
    TITLE "3:cjc173_5529"
    INDEX 01 01:06:60
  TRACK 44 AUDIO
    TITLE "0:"
    INDEX 01 01:07:73
  TRACK 45 AUDIO
    TITLE "4:cjc173_5530"
    INDEX 01 01:08:18
  TRACK 46 AUDIO
    TITLE "0:"
    INDEX 01 01:11:10
  TRACK 47 AUDIO
    TITLE "5:cjc173_5531"
    INDEX 01 01:11:32
  TRACK 48 AUDIO
    TITLE "0:"
    INDEX 01 01:16:57
  TRACK 49 AUDIO
    TITLE "3:cjc173_5532"
    INDEX 01 01:17:29
  TRACK 50 AUDIO
    TITLE "0:"
    INDEX 01 01:18:42
  TRACK 51 AUDIO
    TITLE "4:cjc173_5533"
    INDEX 01 01:18:63
  TRACK 52 AUDIO
    TITLE "0:"
    INDEX 01 01:21:75
  TRACK 53 AUDIO
    TITLE "5:cjc173_5534"
    INDEX 01 01:22:20
  TRACK 54 AUDIO
    TITLE "0:"
    INDEX 01 01:26:59
  TRACK 55 AUDIO
    TITLE "3:cjc173_5535"
    INDEX 01 01:27:31
  TRACK 56 AUDIO
    TITLE "0:"
    INDEX 01 01:28:44
  TRACK 57 AUDIO
    TITLE "4:cjc173_5536"
    INDEX 01 01:28:66
  TRACK 58 AUDIO
    TITLE "0:"
    INDEX 01 01:33:55
  TRACK 59 AUDIO
    TITLE "5:cjc173_5537"
    INDEX 01 01:33:75
  TRACK 60 AUDIO
    TITLE "0:"
    INDEX 01 01:38:15
